<?xml version="1.0" encoding="UTF-8"?>
<!DOCTYPE svg PUBLIC "-//W3C//DTD SVG 1.1//EN" "http://www.w3.org/Graphics/SVG/1.1/DTD/svg11.dtd">
<!-- Creator: CorelDRAW 2019 (64-Bit) -->
<svg xmlns="http://www.w3.org/2000/svg" xml:space="preserve" width="16px" height="16px" version="1.1" style="shape-rendering:geometricPrecision; text-rendering:geometricPrecision; image-rendering:optimizeQuality; fill-rule:evenodd; clip-rule:evenodd"
viewBox="0 0 16 16"
 xmlns:xlink="http://www.w3.org/1999/xlink">
 <defs>
  <style type="text/css">
   <![CDATA[
    .fil1 {fill:#FEFEFE}
    .fil0 {fill:#48887B}
   ]]>
  </style>
 </defs>
 <g id="Capa_x0020_1">
  <metadata id="CorelCorpID_0Corel-Layer"/>
  <rect class="fil0" y="0.34" width="16" height="16" rx="0.91" ry="5.49"/>
  <path class="fil1" d="M14.3 10.29c-0.16,0.26 -0.4,0.46 -0.7,0.6 -0.31,0.14 -0.62,0.17 -0.94,0.09 -0.53,-0.13 -0.87,-0.38 -1,-0.75 -0.04,-0.13 -0.11,-0.35 -0.2,-0.66l-1.43 -4.66c-0.7,0.33 -2.21,0.62 -2.21,0.68l0.2 2.65 -2.18 -2.13c-0.18,-0.17 -2.31,0.26 -3.2,0.19l-0.04 0.12c0.19,0.82 0.51,2.06 0.95,3.71 0.34,-0.44 0.73,-0.7 1.17,-0.76 0.17,-0.02 0.36,-0.01 0.54,0.03 0.33,0.08 0.6,0.24 0.82,0.49 0.36,0.44 0.44,0.96 0.24,1.55 -0.22,0.63 -0.65,0.97 -1.29,1.04 -0.17,0.02 -0.33,0.01 -0.49,-0.02 -0.28,-0.07 -0.65,-0.3 -1.09,-0.69l-1.62 -6.73c0.63,-0.01 1.58,-0.07 2.85,-0.18 2.12,-0.34 3.9,-0.88 5.34,-1.61 0.54,1.77 1.09,3.56 1.66,5.37 0.51,-0.63 1.08,-0.86 1.72,-0.71 0.42,0.1 0.75,0.34 0.98,0.74 0.23,0.39 0.27,0.81 0.12,1.26 -0.05,0.13 -0.11,0.26 -0.2,0.38zm-0.25 -1.06c-0.09,-0.48 -0.34,-0.78 -0.76,-0.9 0.37,0.41 0.45,0.92 0.24,1.53 -0.09,0.28 -0.24,0.53 -0.45,0.75 0.09,-0.01 0.18,-0.04 0.28,-0.1 0.1,-0.06 0.2,-0.11 0.29,-0.16 0.18,-0.24 0.3,-0.45 0.36,-0.63 0.06,-0.17 0.07,-0.33 0.04,-0.49zm-8.14 1.41c-0.06,-0.35 -0.28,-0.62 -0.66,-0.81 -0.1,-0.05 -0.12,-0.07 -0.06,0.02 0.3,0.47 0.36,0.98 0.16,1.55 -0.08,0.23 -0.2,0.45 -0.37,0.64 -0.07,0.09 -0.04,0.06 0.06,0.02 0.08,-0.03 0.19,-0.07 0.3,-0.12 0.22,-0.11 0.38,-0.32 0.49,-0.64 0.08,-0.25 0.11,-0.47 0.08,-0.66z"/>
 </g>
</svg>
