<?xml version="1.0" encoding="UTF-8"?>
<!DOCTYPE svg PUBLIC "-//W3C//DTD SVG 1.1//EN" "http://www.w3.org/Graphics/SVG/1.1/DTD/svg11.dtd">
<!-- Creator: CorelDRAW 2019 (64-Bit) -->
<svg xmlns="http://www.w3.org/2000/svg" xml:space="preserve" width="110px" height="50px" version="1.1" style="shape-rendering:geometricPrecision; text-rendering:geometricPrecision; image-rendering:optimizeQuality; fill-rule:evenodd; clip-rule:evenodd"
viewBox="0 0 110 50"
 xmlns:xlink="http://www.w3.org/1999/xlink">
 <defs>
  <style type="text/css">
   <![CDATA[
    .str1 {stroke:#4B4B4D;stroke-width:1.67;stroke-miterlimit:22.9256}
    .str0 {stroke:#48887B;stroke-width:0.83;stroke-miterlimit:22.9256}
    .fil1 {fill:none}
    .fil0 {fill:#48887B}
   ]]>
  </style>
 </defs>
 <g id="Capa_x0020_1">
  <metadata id="CorelCorpID_0Corel-Layer"/>
  <path class="fil0 str0" d="M17.38 2.89l0 1.64 -4.01 0 0 14.71 -5.03 0 0 -14.71 -4.05 0 0 -1.64 13.09 0zm4.87 -0.39c1.36,0 2.04,0.53 2.04,1.58 0,1.05 -0.68,1.58 -2.04,1.58 -1.36,0 -2.04,-0.53 -2.04,-1.58 0,-1.05 0.68,-1.58 2.04,-1.58zm-2.24 16.74l0 -12.05c1.37,0 2.83,-0.11 4.38,-0.32l0 12.37 -4.38 0zm17.07 -4.43l1.77 0.52c-0.18,2.79 -1.83,4.18 -4.94,4.18 -4.04,0 -6.06,-2.01 -6.06,-6.02 0,-1.95 0.54,-3.54 1.61,-4.79 1.08,-1.24 2.45,-1.86 4.12,-1.86 3.5,0 5.24,2.25 5.24,6.74l-6.38 0c0,3.17 0.81,4.75 2.42,4.75 1.5,0 2.25,-0.89 2.25,-2.69 0,-0.24 0,-0.51 -0.03,-0.83zm-4.65 -2.58l2.62 0c0,-2.81 -0.43,-4.21 -1.27,-4.21 -0.77,0 -1.21,1.04 -1.3,3.12l-0.05 1.09zm21.26 7.01l-4.37 0 0 -8.85c0,-0.91 -0.26,-1.37 -0.76,-1.37 -0.52,0 -0.97,0.36 -1.35,1.07 -0.38,0.72 -0.57,1.57 -0.57,2.54l0 6.61 -4.37 0 0 -12.08c1.5,0 2.96,-0.1 4.37,-0.3l0 2.26c1.09,-1.51 2.42,-2.26 4,-2.26 2.03,0 3.05,1.03 3.05,3.1l0 9.28zm14.86 -16.6l0 16.6 -4.38 0 0 -1.04c-0.73,0.87 -1.71,1.31 -2.94,1.31 -2.72,0 -4.08,-2.08 -4.08,-6.25 0,-4.28 1.44,-6.42 4.31,-6.42 1.14,0 2.04,0.5 2.71,1.5l0 -5.45c1.32,0 2.78,-0.08 4.38,-0.25zm-5.67 5.96c-0.74,0 -1.06,0.68 -1.1,2.03l-0.09 2.56 0.05 2.33c0.03,1.48 0.42,2.23 1.25,2.23 0.8,0 1.18,-0.74 1.21,-2.19l0.05 -2.95 -0.09 -2c-0.05,-1.35 -0.55,-2.01 -1.28,-2.01zm21.8 10.21c-1.06,0.42 -2.11,0.63 -3.12,0.63 -1.5,0 -2.43,-0.47 -2.78,-1.41 -0.73,0.97 -1.77,1.46 -3.14,1.46 -2.55,0 -3.83,-1.19 -3.83,-3.55 0,-1.79 1.17,-3.05 3.5,-3.77 2.14,-0.67 3.2,-1.48 3.2,-2.42 0,-1.24 -0.61,-1.86 -1.84,-1.86 -1.42,0 -2.13,0.6 -2.13,1.8 0,0.38 0.11,0.87 0.34,1.49l-2.17 -0.42c-0.06,-0.38 -0.09,-0.73 -0.09,-1.05 0,-1.92 1.75,-2.87 5.25,-2.87 3.33,0 4.99,0.89 4.99,2.67l0 7.32c0,0.76 0.25,1.14 0.73,1.14 0.16,0 0.38,-0.09 0.68,-0.26l0.41 1.1zm-6.19 -6.82c-0.27,0.31 -0.59,0.57 -0.95,0.78 -0.9,0.52 -1.36,1.41 -1.36,2.66 0,1.59 0.31,2.39 0.94,2.39 0.91,0 1.37,-0.79 1.37,-2.37l0 -3.46zm-24.26 15.37l0 12.38 -4.37 0 0 -1.93c-1.01,1.43 -2.31,2.15 -3.9,2.15 -2.13,0 -3.2,-1.04 -3.2,-3.11l0 -9.17c1.47,-0.07 2.93,-0.17 4.37,-0.32l0 9.39c0,0.8 0.25,1.2 0.75,1.2 1.32,0 1.98,-1.4 1.98,-4.19l0 -6.08c1.46,-0.07 2.92,-0.17 4.37,-0.32zm13.46 3.42l-2.13 0.36c0,-1.8 -0.84,-2.7 -2.53,-2.7 -1.03,0 -1.55,0.42 -1.55,1.27 0,0.62 0.89,1.28 2.67,2.01 2.72,1.1 4.08,2.52 4.08,4.23 0,2.72 -1.73,4.08 -5.19,4.08 -3.66,0 -5.49,-1.36 -5.49,-4.08l2.26 -0.46c-0.03,0.26 -0.05,0.51 -0.05,0.75 0,0.7 0.29,1.31 0.88,1.83 0.59,0.52 1.28,0.78 2.08,0.78 1.06,0 1.58,-0.44 1.58,-1.34 0,-0.6 -0.85,-1.26 -2.55,-1.99 -2.57,-1.1 -3.86,-2.51 -3.86,-4.24 0,-1.14 0.5,-2.07 1.48,-2.8 0.99,-0.73 2.25,-1.1 3.79,-1.1 2.75,0 4.25,1.13 4.53,3.4zm6.11 -7.78c1.35,0 2.03,0.52 2.03,1.58 0,1.05 -0.68,1.58 -2.03,1.58 -1.36,0 -2.04,-0.53 -2.04,-1.58 0,-1.06 0.68,-1.58 2.04,-1.58zm-2.24 16.74l0 -12.05c1.37,0 2.82,-0.11 4.37,-0.33l0 12.38 -4.37 0zm17 -5.39l1.85 0.57 0.02 0.49c0.13,3.06 -1.68,4.6 -5.05,4.6 -3.99,0 -5.98,-2.02 -5.98,-6.05 0,-2.01 0.58,-3.63 1.74,-4.82 1.16,-1.21 2.72,-1.81 4.67,-1.81 2.81,0 4.21,1.27 4.21,3.8l-2.05 1 0.03 -1.15c0.03,-1.73 -0.58,-2.59 -1.75,-2.59 -1.54,0 -2.31,1.69 -2.31,5.08 0,2.09 0.17,3.53 0.5,4.31 0.33,0.78 0.94,1.17 1.83,1.17 1.62,0 2.44,-1.05 2.44,-3.16 0,-0.29 -0.05,-0.77 -0.15,-1.44zm17.15 4.96c-1.06,0.41 -2.11,0.62 -3.12,0.62 -1.51,0 -2.43,-0.47 -2.78,-1.4 -0.73,0.96 -1.77,1.45 -3.14,1.45 -2.55,0 -3.83,-1.18 -3.83,-3.54 0,-1.79 1.17,-3.05 3.5,-3.78 2.14,-0.67 3.21,-1.48 3.21,-2.42 0,-1.24 -0.62,-1.85 -1.85,-1.85 -1.42,0 -2.13,0.6 -2.13,1.79 0,0.38 0.11,0.88 0.34,1.49l-2.17 -0.42c-0.06,-0.37 -0.09,-0.72 -0.09,-1.05 0,-1.91 1.75,-2.87 5.25,-2.87 3.33,0 4.99,0.9 4.99,2.68l0 7.32c0,0.76 0.25,1.13 0.74,1.13 0.15,0 0.37,-0.08 0.67,-0.26l0.41 1.11zm-6.19 -6.82c-0.27,0.3 -0.59,0.57 -0.95,0.78 -0.9,0.52 -1.36,1.4 -1.36,2.65 0,1.6 0.31,2.39 0.94,2.39 0.91,0 1.37,-0.78 1.37,-2.36l0 -3.46z"/>
  <g>
   <path class="fil1 str1" d="M38.58 41.28c-0.41,0.74 -0.99,1.3 -1.74,1.69 -0.76,0.39 -1.53,0.48 -2.33,0.26 -1.32,-0.36 -2.15,-1.07 -2.47,-2.13 -0.11,-0.35 -0.27,-0.98 -0.5,-1.86l-3.53 -13.19c-1.74,0.93 -5.47,1.76 -5.46,1.92l0.48 7.5 -5.4 -6.03c-0.42,-0.47 -5.7,0.74 -7.9,0.54l-0.12 0.33c0.48,2.34 1.26,5.84 2.36,10.51 0.85,-1.26 1.82,-1.98 2.89,-2.16 0.44,-0.05 0.89,-0.02 1.35,0.11 0.82,0.22 1.49,0.67 2.01,1.36 0.92,1.24 1.11,2.71 0.6,4.41 -0.53,1.76 -1.6,2.74 -3.19,2.93 -0.41,0.06 -0.81,0.04 -1.2,-0.07 -0.7,-0.19 -1.6,-0.83 -2.71,-1.93l-4 -19.06c1.57,-0.02 3.92,-0.18 7.04,-0.5 5.26,-0.96 9.66,-2.49 13.22,-4.56 1.33,5.02 2.7,10.08 4.11,15.19 1.27,-1.77 2.68,-2.44 4.25,-2.01 1.04,0.29 1.85,0.98 2.43,2.1 0.58,1.11 0.68,2.29 0.29,3.56 -0.11,0.39 -0.28,0.75 -0.48,1.09zm-0.63 -3c-0.21,-1.37 -0.84,-2.22 -1.89,-2.56 0.93,1.17 1.13,2.62 0.61,4.34 -0.23,0.78 -0.6,1.48 -1.11,2.11 0.22,-0.01 0.45,-0.1 0.7,-0.27 0.24,-0.17 0.48,-0.32 0.7,-0.46 0.44,-0.68 0.74,-1.27 0.89,-1.77 0.14,-0.48 0.18,-0.94 0.1,-1.39zm-20.13 3.98c-0.16,-0.98 -0.7,-1.74 -1.64,-2.28 -0.26,-0.15 -0.28,-0.2 -0.14,0.05 0.74,1.32 0.87,2.78 0.39,4.38 -0.2,0.66 -0.5,1.27 -0.9,1.82 -0.18,0.25 -0.12,0.16 0.14,0.05 0.2,-0.1 0.45,-0.2 0.73,-0.35 0.55,-0.29 0.94,-0.9 1.21,-1.8 0.22,-0.71 0.29,-1.33 0.21,-1.87z"/>
   <path id="1" class="fil0" d="M38.58 41.28c-0.41,0.74 -0.99,1.3 -1.74,1.69 -0.76,0.39 -1.53,0.48 -2.33,0.26 -1.32,-0.36 -2.15,-1.07 -2.47,-2.13 -0.11,-0.35 -0.27,-0.98 -0.5,-1.86l-3.53 -13.19c-1.74,0.93 -5.47,1.76 -5.46,1.92l0.48 7.5 -5.4 -6.03c-0.42,-0.47 -5.7,0.74 -7.9,0.54l-0.12 0.33c0.48,2.34 1.26,5.84 2.36,10.51 0.85,-1.26 1.82,-1.98 2.89,-2.16 0.44,-0.05 0.89,-0.02 1.35,0.11 0.82,0.22 1.49,0.67 2.01,1.36 0.92,1.24 1.11,2.71 0.6,4.41 -0.53,1.76 -1.6,2.74 -3.19,2.93 -0.41,0.06 -0.81,0.04 -1.2,-0.07 -0.7,-0.19 -1.6,-0.83 -2.71,-1.93l-4 -19.06c1.57,-0.02 3.92,-0.18 7.04,-0.5 5.26,-0.96 9.66,-2.49 13.22,-4.56 1.33,5.02 2.7,10.08 4.11,15.19 1.27,-1.77 2.68,-2.44 4.25,-2.01 1.04,0.29 1.85,0.98 2.43,2.1 0.58,1.11 0.68,2.29 0.29,3.56 -0.11,0.39 -0.28,0.75 -0.48,1.09zm-0.63 -3c-0.21,-1.37 -0.84,-2.22 -1.89,-2.56 0.93,1.17 1.13,2.62 0.61,4.34 -0.23,0.78 -0.6,1.48 -1.11,2.11 0.22,-0.01 0.45,-0.1 0.7,-0.27 0.24,-0.17 0.48,-0.32 0.7,-0.46 0.44,-0.68 0.74,-1.27 0.89,-1.77 0.14,-0.48 0.18,-0.94 0.1,-1.39zm-20.13 3.98c-0.16,-0.98 -0.7,-1.74 -1.64,-2.28 -0.26,-0.15 -0.28,-0.2 -0.14,0.05 0.74,1.32 0.87,2.78 0.39,4.38 -0.2,0.66 -0.5,1.27 -0.9,1.82 -0.18,0.25 -0.12,0.16 0.14,0.05 0.2,-0.1 0.45,-0.2 0.73,-0.35 0.55,-0.29 0.94,-0.9 1.21,-1.8 0.22,-0.71 0.29,-1.33 0.21,-1.87z"/>
  </g>
 </g>
</svg>
