<?xml version="1.0" encoding="UTF-8"?>
<!DOCTYPE svg PUBLIC "-//W3C//DTD SVG 1.1//EN" "http://www.w3.org/Graphics/SVG/1.1/DTD/svg11.dtd">
<!-- Creator: CorelDRAW 2019 (64-Bit) -->
<svg xmlns="http://www.w3.org/2000/svg" xml:space="preserve" width="90px" height="25px" version="1.1" style="shape-rendering:geometricPrecision; text-rendering:geometricPrecision; image-rendering:optimizeQuality; fill-rule:evenodd; clip-rule:evenodd"
viewBox="0 0 90 25"
 xmlns:xlink="http://www.w3.org/1999/xlink">
 <defs>
  <style type="text/css">
   <![CDATA[
    .str0 {stroke:#4B4B4D;stroke-width:0.9;stroke-miterlimit:22.9256}
    .fil2 {fill:none}
    .fil0 {fill:#FEFEFE}
    .fil1 {fill:#48887B}
   ]]>
  </style>
 </defs>
 <g id="Capa_x0020_1">
  <metadata id="CorelCorpID_0Corel-Layer"/>
  <rect class="fil0" y="5.5" width="90" height="15" rx="5.14" ry="5.14"/>
  <g id="_1998117938256">
   <path class="fil1" d="M63.01 10.41l0 5.3 -1.88 0 0 -0.83c-0.43,0.62 -0.98,0.92 -1.67,0.92 -0.91,0 -1.37,-0.44 -1.37,-1.33l0 -3.93c0.63,-0.03 1.25,-0.07 1.87,-0.13l0 4.02c0,0.34 0.11,0.51 0.33,0.51 0.56,0 0.84,-0.6 0.84,-1.8l0 -2.6c0.63,-0.03 1.25,-0.07 1.88,-0.13zm5.76 1.46l-0.91 0.16c0,-0.78 -0.36,-1.16 -1.08,-1.16 -0.45,0 -0.67,0.18 -0.67,0.54 0,0.27 0.39,0.55 1.15,0.86 1.17,0.48 1.75,1.08 1.75,1.81 0,1.17 -0.74,1.75 -2.23,1.75 -1.57,0 -2.35,-0.58 -2.35,-1.75l0.97 -0.19c-0.02,0.11 -0.02,0.22 -0.02,0.32 0,0.3 0.12,0.56 0.37,0.79 0.26,0.22 0.55,0.33 0.9,0.33 0.45,0 0.67,-0.19 0.67,-0.57 0,-0.26 -0.36,-0.54 -1.09,-0.86 -1.1,-0.47 -1.65,-1.07 -1.65,-1.81 0,-0.49 0.21,-0.89 0.63,-1.21 0.42,-0.31 0.96,-0.47 1.63,-0.47 1.17,0 1.82,0.49 1.93,1.46zm2.62 -3.34c0.58,0 0.88,0.23 0.88,0.68 0,0.45 -0.3,0.68 -0.88,0.68 -0.58,0 -0.87,-0.23 -0.87,-0.68 0,-0.45 0.29,-0.68 0.87,-0.68zm-0.96 7.18l0 -5.16c0.59,0 1.21,-0.05 1.88,-0.14l0 5.3 -1.88 0zm7.29 -2.31l0.79 0.24 0.01 0.21c0.06,1.32 -0.72,1.97 -2.16,1.97 -1.71,0 -2.57,-0.86 -2.57,-2.59 0,-0.86 0.25,-1.55 0.75,-2.06 0.5,-0.52 1.16,-0.78 2,-0.78 1.2,0 1.81,0.55 1.81,1.63l-0.88 0.43 0.01 -0.49c0.01,-0.75 -0.25,-1.11 -0.75,-1.11 -0.66,0 -0.99,0.72 -0.99,2.17 0,0.9 0.07,1.52 0.21,1.85 0.14,0.34 0.41,0.5 0.79,0.5 0.69,0 1.04,-0.45 1.04,-1.35 0,-0.13 -0.02,-0.33 -0.06,-0.62zm7.35 2.12c-0.46,0.18 -0.9,0.27 -1.34,0.27 -0.64,0 -1.04,-0.2 -1.19,-0.6 -0.31,0.42 -0.76,0.62 -1.35,0.62 -1.09,0 -1.64,-0.5 -1.64,-1.51 0,-0.77 0.5,-1.31 1.5,-1.62 0.92,-0.29 1.38,-0.64 1.38,-1.04 0,-0.53 -0.27,-0.79 -0.79,-0.79 -0.61,0 -0.92,0.25 -0.92,0.77 0,0.16 0.05,0.37 0.15,0.63l-0.93 -0.18c-0.03,-0.16 -0.04,-0.31 -0.04,-0.45 0,-0.82 0.75,-1.23 2.25,-1.23 1.43,0 2.14,0.39 2.14,1.15l0 3.14c0,0.32 0.11,0.48 0.31,0.48 0.07,0 0.17,-0.03 0.29,-0.11l0.18 0.47zm-2.65 -2.92c-0.12,0.13 -0.26,0.25 -0.41,0.34 -0.39,0.22 -0.58,0.6 -0.58,1.13 0,0.69 0.13,1.03 0.4,1.03 0.39,0 0.59,-0.34 0.59,-1.02l0 -1.48z"/>
   <g>
    <path class="fil2 str0" d="M56.3 16.37c-0.17,0.32 -0.42,0.56 -0.75,0.72 -0.32,0.17 -0.65,0.21 -0.99,0.12 -0.57,-0.16 -0.92,-0.46 -1.06,-0.92 -0.05,-0.15 -0.12,-0.42 -0.22,-0.79l-1.51 -5.66c-0.75,0.4 -2.35,0.76 -2.34,0.83l0.2 3.21 -2.31 -2.58c-0.18,-0.21 -2.44,0.31 -3.38,0.23l-0.05 0.14c0.2,1 0.54,2.5 1.01,4.5 0.36,-0.54 0.77,-0.85 1.24,-0.92 0.18,-0.03 0.38,-0.01 0.57,0.04 0.35,0.1 0.64,0.29 0.87,0.59 0.39,0.53 0.47,1.16 0.25,1.89 -0.23,0.75 -0.68,1.17 -1.37,1.25 -0.17,0.03 -0.34,0.02 -0.51,-0.03 -0.3,-0.08 -0.69,-0.35 -1.16,-0.82l-1.72 -8.17c0.68,-0.01 1.68,-0.08 3.02,-0.22 2.25,-0.41 4.14,-1.06 5.67,-1.95 0.57,2.15 1.15,4.32 1.76,6.51 0.54,-0.76 1.15,-1.05 1.82,-0.86 0.45,0.12 0.79,0.42 1.04,0.9 0.25,0.47 0.29,0.98 0.13,1.52 -0.05,0.17 -0.12,0.33 -0.21,0.47zm-0.27 -1.28c-0.09,-0.59 -0.36,-0.96 -0.81,-1.1 0.4,0.5 0.49,1.12 0.26,1.86 -0.1,0.33 -0.26,0.63 -0.47,0.9 0.09,0 0.19,-0.04 0.29,-0.11 0.11,-0.08 0.21,-0.14 0.31,-0.2 0.18,-0.29 0.31,-0.54 0.38,-0.76 0.06,-0.21 0.07,-0.4 0.04,-0.59zm-8.63 1.7c-0.06,-0.42 -0.3,-0.75 -0.7,-0.98 -0.11,-0.06 -0.12,-0.08 -0.06,0.02 0.32,0.57 0.37,1.2 0.17,1.88 -0.09,0.29 -0.22,0.55 -0.39,0.78 -0.08,0.11 -0.05,0.07 0.06,0.02 0.09,-0.04 0.19,-0.08 0.32,-0.15 0.23,-0.12 0.4,-0.38 0.51,-0.77 0.09,-0.3 0.13,-0.57 0.09,-0.8z"/>
    <path id="1" class="fil1" d="M56.3 16.37c-0.17,0.32 -0.42,0.56 -0.75,0.72 -0.32,0.17 -0.65,0.21 -0.99,0.12 -0.57,-0.16 -0.92,-0.46 -1.06,-0.92 -0.05,-0.15 -0.12,-0.42 -0.22,-0.79l-1.51 -5.66c-0.75,0.4 -2.35,0.76 -2.34,0.83l0.2 3.21 -2.31 -2.58c-0.18,-0.21 -2.44,0.31 -3.38,0.23l-0.05 0.14c0.2,1 0.54,2.5 1.01,4.5 0.36,-0.54 0.77,-0.85 1.24,-0.92 0.18,-0.03 0.38,-0.01 0.57,0.04 0.35,0.1 0.64,0.29 0.87,0.59 0.39,0.53 0.47,1.16 0.25,1.89 -0.23,0.75 -0.68,1.17 -1.37,1.25 -0.17,0.03 -0.34,0.02 -0.51,-0.03 -0.3,-0.08 -0.69,-0.35 -1.16,-0.82l-1.72 -8.17c0.68,-0.01 1.68,-0.08 3.02,-0.22 2.25,-0.41 4.14,-1.06 5.67,-1.95 0.57,2.15 1.15,4.32 1.76,6.51 0.54,-0.76 1.15,-1.05 1.82,-0.86 0.45,0.12 0.79,0.42 1.04,0.9 0.25,0.47 0.29,0.98 0.13,1.52 -0.05,0.17 -0.12,0.33 -0.21,0.47zm-0.27 -1.28c-0.09,-0.59 -0.36,-0.96 -0.81,-1.1 0.4,0.5 0.49,1.12 0.26,1.86 -0.1,0.33 -0.26,0.63 -0.47,0.9 0.09,0 0.19,-0.04 0.29,-0.11 0.11,-0.08 0.21,-0.14 0.31,-0.2 0.18,-0.29 0.31,-0.54 0.38,-0.76 0.06,-0.21 0.07,-0.4 0.04,-0.59zm-8.63 1.7c-0.06,-0.42 -0.3,-0.75 -0.7,-0.98 -0.11,-0.06 -0.12,-0.08 -0.06,0.02 0.32,0.57 0.37,1.2 0.17,1.88 -0.09,0.29 -0.22,0.55 -0.39,0.78 -0.08,0.11 -0.05,0.07 0.06,0.02 0.09,-0.04 0.19,-0.08 0.32,-0.15 0.23,-0.12 0.4,-0.38 0.51,-0.77 0.09,-0.3 0.13,-0.57 0.09,-0.8z"/>
   </g>
   <path class="fil1" d="M10.54 9.06l0 0.7 -1.72 0 0 6.3 -2.15 0 0 -6.3 -1.74 0 0 -0.7 5.61 0zm2.09 -0.17c0.58,0 0.87,0.22 0.87,0.68 0,0.45 -0.29,0.67 -0.87,0.67 -0.59,0 -0.88,-0.22 -0.88,-0.67 0,-0.46 0.29,-0.68 0.88,-0.68zm-0.96 7.17l0 -5.16c0.59,0 1.21,-0.05 1.87,-0.14l0 5.3 -1.87 0zm7.32 -1.89l0.75 0.22c-0.08,1.19 -0.79,1.79 -2.12,1.79 -1.73,0 -2.59,-0.86 -2.59,-2.58 0,-0.83 0.23,-1.52 0.69,-2.05 0.46,-0.54 1.05,-0.8 1.76,-0.8 1.5,0 2.25,0.96 2.25,2.89l-2.73 0c0,1.36 0.34,2.03 1.03,2.03 0.64,0 0.97,-0.38 0.97,-1.15 0,-0.1 -0.01,-0.22 -0.01,-0.35zm-2 -1.11l1.12 0c0,-1.2 -0.18,-1.81 -0.54,-1.81 -0.33,0 -0.52,0.45 -0.56,1.34l-0.02 0.47zm9.11 3l-1.87 0 0 -3.79c0,-0.39 -0.11,-0.59 -0.33,-0.59 -0.22,0 -0.41,0.16 -0.57,0.46 -0.17,0.31 -0.25,0.68 -0.25,1.09l0 2.83 -1.87 0 0 -5.17c0.64,0 1.27,-0.05 1.87,-0.13l0 0.97c0.47,-0.65 1.04,-0.97 1.71,-0.97 0.87,0 1.31,0.44 1.31,1.32l0 3.98zm6.37 -7.11l0 7.11 -1.88 0 0 -0.44c-0.31,0.37 -0.73,0.56 -1.26,0.56 -1.16,0 -1.75,-0.89 -1.75,-2.68 0,-1.83 0.62,-2.75 1.85,-2.75 0.49,0 0.88,0.21 1.16,0.64l0 -2.33c0.57,0 1.19,-0.04 1.88,-0.11zm-2.43 2.55c-0.32,0 -0.45,0.29 -0.47,0.87l-0.04 1.1 0.02 1c0.01,0.63 0.18,0.95 0.54,0.95 0.34,0 0.5,-0.31 0.52,-0.94l0.02 -1.26 -0.04 -0.86c-0.02,-0.57 -0.24,-0.86 -0.55,-0.86zm9.34 4.38c-0.45,0.18 -0.9,0.27 -1.34,0.27 -0.64,0 -1.04,-0.2 -1.19,-0.61 -0.31,0.42 -0.76,0.63 -1.34,0.63 -1.1,0 -1.64,-0.51 -1.64,-1.52 0,-0.77 0.5,-1.31 1.5,-1.62 0.91,-0.28 1.37,-0.63 1.37,-1.04 0,-0.53 -0.26,-0.79 -0.79,-0.79 -0.61,0 -0.91,0.26 -0.91,0.77 0,0.16 0.04,0.37 0.14,0.64l-0.93 -0.18c-0.02,-0.16 -0.03,-0.31 -0.03,-0.45 0,-0.82 0.75,-1.23 2.25,-1.23 1.42,0 2.13,0.38 2.13,1.15l0 3.13c0,0.33 0.11,0.49 0.32,0.49 0.06,0 0.16,-0.04 0.29,-0.11l0.17 0.47zm-2.65 -2.92c-0.12,0.13 -0.25,0.24 -0.41,0.33 -0.38,0.23 -0.58,0.6 -0.58,1.14 0,0.68 0.13,1.02 0.4,1.02 0.39,0 0.59,-0.33 0.59,-1.01l0 -1.48z"/>
  </g>
 </g>
</svg>
