<?xml version="1.0" encoding="UTF-8"?>
<!DOCTYPE svg PUBLIC "-//W3C//DTD SVG 1.1//EN" "http://www.w3.org/Graphics/SVG/1.1/DTD/svg11.dtd">
<!-- Creator: CorelDRAW 2019 (64-Bit) -->
<svg xmlns="http://www.w3.org/2000/svg" xml:space="preserve" width="62px" height="62px" version="1.1" style="shape-rendering:geometricPrecision; text-rendering:geometricPrecision; image-rendering:optimizeQuality; fill-rule:evenodd; clip-rule:evenodd"
viewBox="0 0 62 62"
 xmlns:xlink="http://www.w3.org/1999/xlink">
 <defs>
  <style type="text/css">
   <![CDATA[
    .fil0 {fill:#48887B}
   ]]>
  </style>
 </defs>
 <g id="Capa_x0020_1">
  <metadata id="CorelCorpID_0Corel-Layer"/>
  <path class="fil0" d="M10.91 57.41l-5.45 -38.07 49.59 0 -5.45 38.07c-0.44,3.07 -3.04,5.33 -6.11,5.33 0,0 -0.03,0 -0.03,0l-26.44 0c0.03,0 0,0 0,0 -3.07,0 -5.67,-2.26 -6.11,-5.33l0 0zm47.25 -50.47l-15.5 0 0 -3.1c0,-1.7 -1.4,-3.1 -3.1,-3.1l-18.6 0c-1.71,0 -3.1,1.4 -3.1,3.1l0 3.1 -15.5 0c-1.71,0 -3.1,1.4 -3.1,3.1 0,1.71 1.39,3.1 3.1,3.1l55.8 0c1.7,0 3.1,-1.39 3.1,-3.1 0,-1.7 -1.4,-3.1 -3.1,-3.1l0 0z"/>
 </g>
</svg>
